<svg xmlns="http://www.w3.org/2000/svg" xmlns:xlink="http://www.w3.org/1999/xlink" width="150" height="150" viewBox="0 0 150 150"><defs><style>.a{fill:url(#a);}</style><linearGradient id="a" x1="0.823" y1="0.103" x2="0.213" y2="0.913" gradientUnits="objectBoundingBox"><stop offset="0" stop-color="#f5317f"/><stop offset="1" stop-color="#ff7c6e"/></linearGradient></defs><g transform="translate(75)"><path class="a" d="M0,0A5,5,0,0,0,0,10,65,65,0,0,1,0,140,65,65,0,0,1-65,75a5,5,0,0,0-5-5,5,5,0,0,0-5,5A75,75,0,0,0,0,150,75,75,0,0,0,75,75,75,75,0,0,0,0,0"/></g></svg>