<svg xmlns="http://www.w3.org/2000/svg" xmlns:xlink="http://www.w3.org/1999/xlink" width="150" height="150" viewBox="0 0 150 150"><defs><style>.a{fill:url(#a);}</style><linearGradient id="a" x1="0.827" y1="0.11" x2="0.173" y2="0.893" gradientUnits="objectBoundingBox"><stop offset="0" stop-color="#ff8359"/><stop offset="1" stop-color="#ffdf40"/></linearGradient></defs><g transform="translate(75)"><path class="a" d="M0,0A5,5,0,0,0-5,5a5,5,0,0,0,5,5H0A65,65,0,0,1,65,75,65,65,0,0,1,0,140,65,65,0,0,1-65,75a64.933,64.933,0,0,1,2.836-19.015A4.956,4.956,0,0,0-61.75,54a5,5,0,0,0-5-5,4.985,4.985,0,0,0-4.762,3.551l-.068-.021A75.092,75.092,0,0,0-75,75,75,75,0,0,0,0,150,75,75,0,0,0,75,75,75,75,0,0,0,0,0"/></g></svg>