<svg xmlns="http://www.w3.org/2000/svg" xmlns:xlink="http://www.w3.org/1999/xlink" width="136.73" height="150" viewBox="0 0 136.73 150"><defs><style>.a{fill:url(#a);}</style><linearGradient id="a" x1="0.835" y1="0.123" x2="0.17" y2="0.94" gradientUnits="objectBoundingBox"><stop offset="0" stop-color="#2cbfc7"/><stop offset="1" stop-color="#46eeaa"/></linearGradient></defs><g transform="translate(61.73)"><path class="a" d="M0,0A5,5,0,0,0-5,5a5,5,0,0,0,5,5H0A65,65,0,0,1,65,75,65,65,0,0,1,0,140a64.883,64.883,0,0,1-52.7-26.95l-.009.006A4.976,4.976,0,0,0-56.73,111a5,5,0,0,0-5,5,4.963,4.963,0,0,0,.936,2.9l-.005,0A74.85,74.85,0,0,0,0,150,75,75,0,0,0,75,75,75,75,0,0,0,0,0"/></g></svg>