<svg xmlns="http://www.w3.org/2000/svg" xmlns:xlink="http://www.w3.org/1999/xlink" width="148.574" height="150" viewBox="0 0 148.574 150"><defs><style>.a{fill:url(#a);}</style><linearGradient id="a" x1="0.835" y1="0.113" x2="0.196" y2="0.913" gradientUnits="objectBoundingBox"><stop offset="0" stop-color="#b122e5"/><stop offset="1" stop-color="#ff63de"/></linearGradient></defs><g transform="translate(73.574)"><path class="a" d="M0,0A5,5,0,0,0-5,5a5,5,0,0,0,5,5H0A65,65,0,0,1,65,75,65,65,0,0,1,0,140,65.012,65.012,0,0,1-63.67,88.13h-.008a5,5,0,0,0-4.9-3.985,5,5,0,0,0-5,5,5.06,5.06,0,0,0,.11,1.037A75.036,75.036,0,0,0,0,150,75,75,0,0,0,75,75,75,75,0,0,0,0,0"/></g></svg>