<svg xmlns="http://www.w3.org/2000/svg" xmlns:xlink="http://www.w3.org/1999/xlink" width="150" height="150" viewBox="0 0 150 150"><defs><style>.a{fill:url(#a);}</style><linearGradient id="a" x1="0.847" y1="0.123" x2="0.197" y2="0.903" gradientUnits="objectBoundingBox"><stop offset="0" stop-color="#1270e3"/><stop offset="1" stop-color="#59c2ff"/></linearGradient></defs><path class="a" d="M0,0A5,5,0,0,0-5,5a5,5,0,0,0,5,5H0A65,65,0,0,1,65,75,65,65,0,0,1,0,140,65,65,0,0,1-65,75,64.62,64.62,0,0,1-52.51,36.7l-.035-.025a4.953,4.953,0,0,0,.961-2.925,5,5,0,0,0-5-5,4.981,4.981,0,0,0-4.254,2.4A74.616,74.616,0,0,0-75,75,75,75,0,0,0,0,150,75,75,0,0,0,75,75,75,75,0,0,0,0,0" transform="translate(75)"/></svg>